PathFileType	4	(X/Y/Z)	s02c0402.trc
DataRate	CameraRate	NumFrames	NumMarkers	Units	OrigDataRate	OrigDataStartFrame	OrigNumFrames
200	200	6	50	mm	200	750	2000
Frame#	Time	racr			lacr			c7			jug			rlel			rdr			llel			ldr			s2			lic			ric			lasi			rasi			rpsi			lpsi			rgt			lgt			rth1			rth2			rth3			rth4			rlfc			rmfc			rsh1			rsh2			rsh3			rsh4			rlmal			rmmal			rtoe			rmt5			rmt1			lth1			lth2			lth4			lth3			llfc			lmfc			lsh1			lsh2			lsh3			lsh4			llmal			lmmal			lcal			ltoe			lmt5			SBIKE			LBIKE			RBIKE			
		X1	Y1	Z1	X2	Y2	Z2	X3	Y3	Z3	X4	Y4	Z4	X5	Y5	Z5	X6	Y6	Z6	X7	Y7	Z7	X8	Y8	Z8	X9	Y9	Z9	X10	Y10	Z10	X11	Y11	Z11	X12	Y12	Z12	X13	Y13	Z13	X14	Y14	Z14	X15	Y15	Z15	X16	Y16	Z16	X17	Y17	Z17	X18	Y18	Z18	X19	Y19	Z19	X20	Y20	Z20	X21	Y21	Z21	X22	Y22	Z22	X23	Y23	Z23	X24	Y24	Z24	X25	Y25	Z25	X26	Y26	Z26	X27	Y27	Z27	X28	Y28	Z28	X29	Y29	Z29	X30	Y30	Z30	X31	Y31	Z31	X32	Y32	Z32	X33	Y33	Z33	X34	Y34	Z34	X35	Y35	Z35	X36	Y36	Z36	X37	Y37	Z37	X38	Y38	Z38	X39	Y39	Z39	X40	Y40	Z40	X41	Y41	Z41	X42	Y42	Z42	X43	Y43	Z43	X44	Y44	Z44	X45	Y45	Z45	X46	Y46	Z46	X47	Y47	Z47	X48	Y48	Z48	X49	Y49	Z49	X50	Y50	Z50	
750	3.7500	541.040028	1226.497301	-66.815647	614.987793	1267.194744	-442.396001	596.472969	1324.971682	-252.372562	545.289772	1192.170627	-258.791609	506.388988	958.579515	-41.534304	676.455203	875.245450	-122.177157	528.602396	1023.396392	-584.341083	677.036910	880.235218	-507.468341	75.509759	1125.288630	-315.379269	217.039638	1134.616851	-452.415745	203.110022	1116.858388	-163.015214	256.312581	1102.071874	-424.298414	259.648788	1086.496407	-187.237729	104.598670	1161.193469	-267.333477	108.890870	1177.254052	-350.774189	163.344767	1025.389018	-135.287506	169.447045	1057.517750	-495.557295	215.049980	944.625634	-120.497783	260.599350	868.970273	-121.595663	265.164760	784.441630	-103.985996	291.021386	876.810072	-143.158136	282.815783	650.876836	-141.129618	283.897891	634.285702	-243.700376	268.937211	543.658437	-120.692119	283.352964	456.818562	-136.487342	253.023042	375.553514	-138.247395	300.268572	458.551767	-172.198747	233.731194	256.853883	-150.730396	244.119888	278.038649	-230.054228	439.005421	153.823683	-188.476041	327.353366	161.086589	-132.670811	359.807226	173.179759	-238.482315	297.322789	1009.117619	-503.620229	381.787310	990.281960	-498.424378	395.590593	1017.467343	-477.777231	446.248411	929.085311	-502.208935	528.158778	869.328961	-482.210696	522.863736	840.955030	-370.105201	472.741978	784.188188	-498.852791	416.368787	720.695611	-481.198241	334.068815	685.256040	-490.357068	426.760891	709.521792	-443.069836	233.516581	637.293929	-483.677355	245.323025	629.079644	-404.396442	147.110723	632.625421	-443.488972	371.170192	453.057126	-442.781619	274.171243	497.294795	-505.369635	-165.222185	856.772044	-317.520927	32.541848	82.470174	-515.214707	32.792224	82.267103	-115.132770	
751	3.7550	542.854317	1228.135381	-69.169659	615.141756	1267.335995	-445.449671	597.454177	1325.953347	-255.416046	545.819117	1193.466476	-260.743656	507.082769	960.423511	-41.982548	676.615939	875.417279	-122.175293	528.321425	1022.745939	-585.291356	676.936330	880.503434	-507.381299	75.487510	1127.245802	-315.103383	216.679373	1136.754047	-453.253314	203.778073	1118.609668	-163.342252	255.912360	1104.223677	-424.776280	259.921841	1087.811622	-187.750882	104.956961	1163.193825	-267.121902	108.523500	1179.221590	-350.271459	163.202655	1026.922463	-135.652651	169.198486	1060.108570	-495.891842	214.032841	945.722923	-121.014798	258.555825	869.478906	-122.238472	262.109963	784.932219	-104.557559	289.021396	876.815887	-143.961746	278.314084	651.261491	-141.903502	279.233141	634.710619	-244.416110	263.957262	544.449495	-121.211251	277.826606	457.369592	-137.064409	247.954146	376.077684	-138.817453	295.536160	459.184167	-172.375492	229.464572	257.650868	-150.553179	240.629431	278.211928	-228.340080	433.084946	150.587700	-188.387387	321.640868	160.016324	-132.643928	354.342303	171.364387	-238.230080	297.784126	1012.105193	-504.658440	381.949824	993.257005	-498.590544	395.795025	1020.539638	-478.115709	446.526159	932.046083	-501.993912	529.329605	872.822352	-481.376598	527.850984	845.150890	-371.504094	474.117821	787.327779	-498.601473	418.446362	723.225245	-480.859781	336.749293	686.649391	-490.078341	429.042405	712.356120	-442.935769	236.576387	637.732416	-483.220002	248.324286	629.659560	-403.990912	149.989778	631.459222	-443.200109	377.853758	456.736847	-443.089055	280.404599	500.063291	-506.919895	-165.336737	856.634804	-317.836630	32.525444	82.476006	-515.211494	32.796157	82.265805	-115.130986	
752	3.7600	544.816567	1229.859978	-71.679665	615.246918	1267.543350	-448.480269	598.490745	1326.863480	-258.520201	546.325578	1194.553959	-263.074726	507.822921	962.198644	-42.523889	676.776346	875.554945	-122.148569	527.915894	1022.061241	-586.219483	676.824784	880.771810	-507.312381	75.450788	1129.416408	-314.683655	215.907107	1138.740745	-453.389700	204.468129	1120.512085	-163.758827	255.488489	1106.512096	-425.251642	260.110212	1089.198942	-188.253738	105.322392	1165.277488	-267.009853	108.147801	1181.561129	-349.990071	163.067509	1028.617310	-135.984233	169.063855	1062.646849	-496.262972	213.003549	946.953746	-121.586399	256.622507	870.059234	-122.921865	259.204608	785.514391	-105.140483	287.086224	877.032540	-144.678925	273.915009	651.900770	-142.656439	274.211607	635.940551	-245.607891	259.136745	545.413632	-121.717309	273.817143	458.519586	-136.957981	243.398379	377.067462	-138.950249	291.060181	460.123662	-172.579405	225.294400	258.598032	-150.455706	236.908053	278.894767	-228.145319	427.148244	147.738209	-188.239645	315.815589	159.197569	-132.638058	348.837097	169.943088	-238.089909	297.940769	1014.712650	-505.064509	381.975085	995.684245	-498.355605	396.031183	1023.565321	-478.778523	446.664823	934.819247	-501.891195	528.419997	875.683738	-482.692079	527.651413	848.074477	-371.260412	475.426444	790.353469	-498.450146	421.058042	726.052543	-481.403686	339.308578	688.030584	-489.824005	431.325484	714.926480	-442.587820	239.652917	637.927681	-483.089087	251.371375	629.803972	-403.770085	152.887147	629.767020	-442.653170	384.564571	460.104257	-443.220965	285.589895	500.496867	-505.553917	-165.286244	857.412672	-315.346597	32.513010	82.463816	-515.206523	32.778797	82.245186	-115.136258	
753	3.7650	546.735959	1231.455688	-74.278296	615.316553	1267.551960	-451.421331	599.610694	1327.689337	-261.691083	546.798791	1195.540142	-265.464381	508.609683	964.040685	-43.139653	676.929400	875.653290	-122.199578	527.485156	1021.249265	-587.051079	676.682573	881.036749	-507.184927	75.248632	1131.878134	-314.539886	215.442575	1140.936769	-453.817933	205.081985	1122.510004	-164.063600	255.129086	1108.900095	-425.654708	260.199640	1090.700795	-188.707062	105.737527	1167.521358	-267.119583	107.750807	1183.844342	-349.715243	162.902961	1030.524743	-136.247413	168.968684	1065.266044	-496.636295	211.977817	948.312465	-122.306561	254.675816	870.964632	-123.537187	256.396883	786.381699	-105.718409	285.164571	877.553014	-145.405318	269.804051	652.797153	-143.391119	270.044976	636.665730	-246.175539	254.434457	546.626427	-122.223381	268.492664	459.497400	-137.558444	238.850655	378.099090	-139.062790	286.648295	461.197166	-172.634141	221.116601	259.830154	-150.394207	233.160952	279.816421	-227.933339	421.108543	144.963305	-188.215152	310.061941	158.550270	-132.680629	343.312157	168.770135	-237.868785	298.003689	1017.454914	-505.397023	382.048835	998.344040	-498.674308	396.344880	1026.668625	-479.990699	446.719568	937.497409	-501.906326	528.840805	879.303257	-482.561363	528.169164	851.109048	-371.340880	476.635787	793.277708	-498.414249	423.003213	728.181436	-481.200021	341.836978	689.180394	-489.653111	433.561030	717.239323	-442.552677	242.801363	637.740414	-482.528010	254.639862	629.690091	-403.449521	155.929332	627.934247	-442.372992	391.174060	463.171000	-443.391914	291.374622	501.602719	-505.643033	-165.316572	857.543899	-315.042364	32.524543	82.479619	-515.216642	32.771380	82.284295	-115.137154	
754	3.7700	548.775835	1233.097512	-76.850216	615.293896	1267.499811	-454.267320	600.732235	1328.387637	-264.982774	547.235150	1196.628835	-267.948865	509.404676	965.839037	-43.807002	677.113953	875.733824	-122.256808	526.877519	1020.428911	-588.014027	676.462555	881.313637	-507.028855	75.143337	1134.101662	-314.933014	214.861778	1142.972811	-453.874884	205.676671	1124.660932	-164.361571	254.839465	1111.279122	-425.974063	260.214786	1092.172024	-189.143268	106.119504	1169.916948	-267.033291	107.551278	1186.374841	-349.535182	162.727494	1032.481384	-136.524022	168.894564	1067.914989	-496.998754	210.973857	949.764878	-122.912116	252.792060	872.072423	-124.175360	253.661241	787.507096	-106.254243	283.303560	878.244695	-146.146372	265.748918	653.715972	-144.060542	265.968040	637.744042	-246.912275	249.932130	548.018364	-122.690818	264.771301	460.963811	-137.443132	234.745816	380.058376	-137.721636	282.349919	462.468339	-172.790808	217.044015	261.229644	-150.320087	229.460460	281.099871	-227.701167	414.917949	142.261482	-188.134728	304.221789	158.304383	-132.656841	336.577254	166.794401	-238.845051	297.969135	1019.799488	-505.910144	381.989354	1000.988777	-499.066743	396.376230	1029.348702	-480.504694	446.691922	940.093795	-501.920122	529.834838	882.990352	-481.821205	525.057087	857.223274	-370.660723	477.766484	795.906599	-498.522502	425.117685	730.137602	-481.323049	344.335703	690.137920	-489.682662	435.781451	719.281803	-442.507170	245.932987	637.283000	-482.271642	257.658758	629.384281	-403.323252	159.088986	625.812529	-442.253149	397.973440	466.202765	-443.707881	297.214416	502.419762	-505.738594	-165.288328	857.458403	-315.230574	32.519316	82.453198	-515.228102	32.768740	82.262106	-115.133595	
755	3.7750	550.856700	1234.704356	-79.506519	615.080245	1267.063046	-456.608106	601.933208	1329.013319	-268.257610	547.710463	1197.556829	-270.348906	510.253788	967.634146	-44.551461	677.334113	875.784288	-122.372356	526.285656	1019.542763	-588.946251	676.230266	881.585954	-506.948020	74.765592	1136.361806	-315.326740	214.445767	1145.529306	-454.379418	206.251901	1126.905220	-164.707988	254.564719	1113.739727	-426.289231	260.261986	1093.907056	-189.532758	106.491450	1172.363665	-266.812788	107.596302	1188.936203	-349.403189	162.475521	1034.538036	-136.811422	168.837191	1070.613907	-497.340249	209.890225	951.506264	-123.384394	251.000488	873.339001	-124.793897	251.090395	788.835543	-106.693073	281.534854	879.149302	-146.822317	262.020652	654.983443	-144.590850	262.152025	639.027674	-247.603803	245.620962	549.595060	-123.150086	259.813244	462.483834	-137.932881	230.515151	381.665035	-137.790121	278.281837	463.867661	-172.893437	213.012703	262.912607	-150.231446	225.776354	282.580928	-227.475963	408.720439	139.917240	-187.964166	298.364833	158.234376	-132.708065	330.941859	165.941916	-238.631187	297.176962	1023.013521	-504.080418	381.816562	1003.608045	-499.598196	396.318188	1032.080772	-481.019771	446.517129	942.646402	-502.095618	529.726729	885.926931	-482.186737	525.054757	859.549372	-370.966481	478.817669	798.335970	-498.698758	427.175377	731.857749	-481.483439	346.815775	690.796657	-489.737815	437.943863	721.160499	-442.708197	249.070409	636.470805	-482.218455	260.948019	628.631676	-403.069986	162.728154	623.228357	-442.527384	404.605000	468.806078	-443.782495	303.074869	502.968751	-505.828770	-165.316082	857.451364	-315.157082	32.508230	82.459012	-515.225120	32.267223	82.701580	-115.175674	
